<svg width="18" height="19" viewBox="0 0 18 19" fill="none" xmlns="http://www.w3.org/2000/svg">
<path fill-rule="evenodd" clip-rule="evenodd" d="M14.8959 4.47012C15.0621 4.47335 15.1961 4.60733 15.1993 4.77355V14.4835C15.1993 14.6544 15.0607 14.793 14.8898 14.793H2.75849C2.58993 14.7897 2.45506 14.6521 2.45506 14.4835V4.77355C2.45829 4.60733 2.59227 4.47335 2.75849 4.47012H14.8959ZM14.8959 3.55981H2.75849C2.08816 3.55981 1.54475 4.10322 1.54475 4.77355V14.4835C1.54475 15.1538 2.08816 15.6972 2.75849 15.6972H14.8959C15.5662 15.6972 16.1096 15.1538 16.1096 14.4835V4.77355C16.1096 4.10322 15.5662 3.55981 14.8959 3.55981Z" fill="white"/>
<path d="M2.24777 6.58801H15.3015" stroke="white" stroke-width="0.910304" stroke-linecap="round" stroke-linejoin="round"/>
<path d="M2.26758 9.02197H15.3213" stroke="white" stroke-width="0.910304" stroke-linecap="round" stroke-linejoin="round"/>
<path d="M4.57991 12.6633H8.22113" stroke="white" stroke-width="0.910304" stroke-linecap="round" stroke-linejoin="round"/>
<path d="M11.8612 12.6633H13.0749" stroke="white" stroke-width="0.910304" stroke-linecap="round" stroke-linejoin="round"/>
</svg>
