<svg width="34" height="34" viewBox="0 0 34 34" fill="none" xmlns="http://www.w3.org/2000/svg">
<path d="M16.1844 18.669C16.3313 18.6008 16.494 18.6061 16.6409 18.6795L17.7429 19.2305V17.1997H14.904V19.262L16.1844 18.669ZM26.9787 26.6507C26.6376 26.4722 26.2546 26.4408 25.9082 26.5667L18.6245 29.18C18.2677 29.3794 17.8531 29.4896 17.4176 29.4896H13.0253C12.7367 29.4896 12.5006 29.2535 12.5006 28.9649C12.5006 28.6762 12.7367 28.4401 13.0253 28.4401H17.4176C17.6642 28.4401 17.9056 28.3771 18.1103 28.2722L18.189 28.2249C18.4986 28.0308 18.7242 27.7264 18.7819 27.3748C18.8133 27.1902 18.8039 27.001 18.7545 26.8204C18.7051 26.6398 18.6168 26.4722 18.4959 26.3292C18.3749 26.1863 18.2242 26.0715 18.0543 25.9929C17.8843 25.9142 17.6993 25.8737 17.512 25.874H14.2323C13.272 25.874 12.3116 25.5277 11.5297 24.9032C10.2493 23.8799 7.59928 22.5155 4.09912 24.6513V31.0219C4.99646 31.0272 6.87511 31.1899 9.48842 32.2131C11.9391 33.1734 14.5471 33.3938 17.0345 32.8533C19.5848 32.2971 23.3999 31.1689 27.0522 28.9281C27.3408 28.7497 27.556 28.4506 27.6347 28.1043C27.7711 27.527 27.4982 26.9288 26.9787 26.6507Z" fill="white"/>
<path d="M14.2322 24.8141H17.512C18.1994 24.8141 18.8449 25.1133 19.2909 25.638C19.5223 25.9116 19.688 26.2344 19.7753 26.5819C19.8626 26.9293 19.8692 27.2922 19.7947 27.6426L23.3841 26.3569V18.0657C23.3841 17.5882 22.9957 17.2051 22.5235 17.2051H18.7872V20.086C18.7872 20.155 18.7737 20.2232 18.7474 20.2869C18.721 20.3506 18.6824 20.4085 18.6336 20.4573C18.5849 20.506 18.527 20.5446 18.4633 20.571C18.3996 20.5973 18.3313 20.6109 18.2624 20.6108C18.1837 20.6108 18.0997 20.5898 18.0263 20.5531L16.389 19.7344L14.5891 20.5636C14.4264 20.637 14.2375 20.6265 14.0853 20.5268C14.0109 20.48 13.9497 20.4149 13.9074 20.3378C13.8652 20.2606 13.8433 20.174 13.8439 20.086V17.2051H10.1076C9.63007 17.2051 9.24699 17.5934 9.24699 18.0657V22.6259C10.5064 22.9198 11.5087 23.539 12.1804 24.0795C12.7891 24.5623 13.4976 24.8141 14.2322 24.8141ZM3.04956 22.9145L0.803582 22.883L0.777344 32.3917L3.01808 32.4232L3.04956 32.3917V22.9145ZM18.6717 7.1874C18.259 6.94151 17.7878 6.81102 17.3073 6.80957C15.8223 6.80957 14.6153 8.01652 14.6153 9.5016C14.6153 10.9867 15.8223 12.1936 17.3073 12.1936C18.0735 12.1936 18.7872 11.863 19.2909 11.312C18.8501 11.1861 18.4513 10.9342 18.1574 10.5774C17.428 9.69576 17.5172 8.34712 18.3569 7.50226L18.6717 7.1874Z" fill="white"/>
<path d="M23.4315 3.45112C23.5102 3.64528 23.4683 3.87093 23.3161 4.02311L19.097 8.24219C18.6352 8.70398 18.5775 9.4334 18.9658 9.90569C19.1862 10.1733 19.4958 10.3307 19.8369 10.3465C20.178 10.3675 20.5033 10.2363 20.7447 9.9949L24.2449 6.49474C24.2934 6.44609 24.3511 6.4075 24.4146 6.38116C24.4781 6.35483 24.5461 6.34127 24.6149 6.34127C24.6836 6.34127 24.7516 6.35483 24.8151 6.38116C24.8786 6.4075 24.9363 6.44609 24.9848 6.49474C25.6985 7.19792 26.6431 7.55476 27.6454 7.56525C28.5742 7.54951 29.4453 7.19267 30.117 6.55771V0.0769043H21.0229C20.1413 0.0769043 19.3069 0.423247 18.6824 1.04771L16.5991 3.13102H22.9487C23.1586 3.12577 23.3528 3.25696 23.4315 3.45112Z" fill="white"/>
<path d="M10.1861 10.5775C10.7802 10.5775 11.2619 10.0959 11.2619 9.50179C11.2619 8.90766 10.7802 8.42603 10.1861 8.42603C9.59199 8.42603 9.11035 8.90766 9.11035 9.50179C9.11035 10.0959 9.59199 10.5775 10.1861 10.5775Z" fill="white"/>
<path d="M31.1713 0.0769043H33.9998V6.2481H31.1713V0.0769043ZM24.6433 7.58624L21.4895 10.7401C21.2376 10.9919 20.9227 11.1704 20.5869 11.2806C19.9362 12.477 18.682 13.2432 17.3071 13.2432C15.2448 13.2432 13.5656 11.5639 13.5656 9.50162C13.5656 7.43931 15.2448 5.76007 17.3071 5.76007C18.068 5.76007 18.8079 5.99621 19.4272 6.42652L21.6784 4.17529H7.15823C6.96407 4.17529 6.80664 4.33272 6.80664 4.52688V14.4659C6.80664 14.66 6.96407 14.8175 7.15823 14.8175H27.4613C27.6554 14.8175 27.8128 14.66 27.8128 14.4659V8.59903C27.7604 8.59903 27.7131 8.60953 27.6607 8.60953C26.5534 8.60953 25.4986 8.26843 24.6433 7.58624ZM10.1861 11.6269C9.01589 11.6269 8.06082 10.6718 8.06082 9.50162C8.06082 8.3314 9.01589 7.37634 10.1861 7.37634C11.3563 7.37634 12.3114 8.3314 12.3114 9.50162C12.3114 10.6718 11.3563 11.6269 10.1861 11.6269Z" fill="white"/>
</svg>
