<svg width="37" height="37" viewBox="0 0 37 37" fill="none" xmlns="http://www.w3.org/2000/svg">
<g clip-path="url(#clip0_442_1664)">
<path d="M35.5874 6.84345L12.9266 2.0478C11.9679 1.84497 11.0176 2.46351 10.8148 3.42225L10.3843 6.18893L36.5309 11.722L36.9614 8.9553C37.1643 7.99692 36.5461 7.04634 35.5874 6.84345ZM26.0579 12.3087C25.7932 11.3555 24.7971 10.7921 23.8443 11.0564L19.5424 12.2506L9.4011 10.1044L8.28577 15.3742L1.31715 17.3083C0.364333 17.5727 -0.199074 18.5688 0.0651876 19.5217L3.99241 33.6735C4.2571 34.6263 5.25326 35.1901 6.20608 34.9255L28.7332 28.674C29.686 28.4093 30.2494 27.4135 29.9851 26.4603L29.311 24.0308L31.8375 24.565C32.7963 24.7682 33.7465 24.1496 33.9494 23.1909L35.5478 15.6375L26.4473 13.7117L26.0579 12.3087ZM28.6595 19.5013L29.2166 16.8682C29.3003 16.474 29.6912 16.2197 30.0854 16.3029L32.7184 16.8604C33.1131 16.9441 33.3673 17.3346 33.2841 17.7292L32.727 20.3623C32.6433 20.7565 32.2524 21.0112 31.8582 20.9275L29.2251 20.3704C28.8302 20.2864 28.5758 19.8955 28.6595 19.5013ZM1.70916 18.7206L7.94328 16.9911L22.6526 12.9092L24.2355 12.4694C24.2644 12.4616 24.2932 12.4579 24.3214 12.4579C24.4483 12.4579 24.6002 12.5412 24.6445 12.7008L24.8304 13.3701L25.4127 15.4682L2.2459 21.897L1.47779 19.13C1.42966 18.9564 1.53558 18.7687 1.70916 18.7206ZM28.5725 26.8519C28.6021 26.9592 28.571 27.0481 28.5395 27.1036C28.5085 27.1591 28.4485 27.2317 28.3411 27.2613L5.81443 33.5128C5.78645 33.5206 5.75756 33.5245 5.72852 33.5247C5.60156 33.5247 5.44975 33.441 5.40537 33.2815L3.11475 25.0269L26.2815 18.5977L27.6945 23.6887L28.5725 26.8519Z" fill="white"/>
<path d="M9.45442 27.4167C9.34632 27.028 8.94059 26.7985 8.5519 26.9062L5.92108 27.6366C5.53276 27.7443 5.3029 28.1504 5.41099 28.5391L6.14096 31.1695C6.24906 31.5582 6.6548 31.7877 7.04348 31.6796L9.67431 30.9497C10.063 30.8419 10.2925 30.4358 10.1848 30.0471L9.45442 27.4167Z" fill="white"/>
</g>
<defs>
<clipPath id="clip0_442_1664">
<rect width="37" height="37" fill="white"/>
</clipPath>
</defs>
</svg>
