<svg width="22" height="24" viewBox="0 0 22 24" fill="none" xmlns="http://www.w3.org/2000/svg">
<g clip-path="url(#clip0_442_1686)">
<path d="M20.9073 6.78582C20.6326 5.24796 19.8754 3.95204 18.7692 2.87425C16.8186 0.973469 14.4416 0.0966631 11.7669 0.00522003C10.4486 -0.0400252 9.15813 0.199537 7.89827 0.581978C5.18726 1.40544 3.15565 3.07237 1.83783 5.61516C1.141 6.96061 0.719317 8.3975 0.433327 9.8806C0.410712 9.99728 0.436625 10.093 0.501173 10.193C1.08352 11.0989 1.79025 11.8909 2.62701 12.5625C3.92692 13.6045 5.4087 14.2632 7.00591 14.6766C8.34115 15.0224 9.70184 15.1781 11.512 15.2424C12.4633 15.251 13.831 15.1133 15.17 14.7309C16.5925 14.3251 17.9037 13.7012 18.9958 12.6758C20.7037 11.0727 21.3181 9.08714 20.9073 6.78582ZM15.0367 9.55293C14.6607 9.993 14.1698 10.2507 13.635 10.4302C13.0296 10.6331 12.4044 10.7303 11.7683 10.7703C10.3176 10.8608 8.8891 10.7031 7.47706 10.3788C6.83299 10.2311 6.21437 10.0054 5.66642 9.61722C5.58397 9.55912 5.50764 9.49244 5.4266 9.42862C5.902 7.62738 6.93005 6.32146 8.64034 5.60563C9.51621 5.23891 10.4312 5.01935 11.3806 5.02078C12.2885 5.02221 13.1742 5.17318 13.9903 5.61516C14.9024 6.11 15.4706 6.85916 15.5776 7.9079C15.6403 8.52181 15.4405 9.08047 15.0367 9.55293Z" fill="white"/>
<path d="M22 17.8473C21.9788 17.9135 21.9651 17.9735 21.9406 18.0287C21.4285 19.1837 20.6827 20.1629 19.7413 20.9921C18.1111 22.4285 16.2062 23.2839 14.1016 23.7163C13.5334 23.833 12.9628 23.934 12.3824 23.9525C11.7322 23.9735 11.0787 24.0254 10.4313 23.9849C8.03174 23.8349 5.81826 23.1276 3.89408 21.6241C2.20829 20.3062 1.07894 18.6026 0.476335 16.539C0.246884 15.7541 0.0937594 14.9559 0.0579518 14.1376C0.0325095 13.5442 0.0188461 12.9503 0 12.3569C0.0164903 12.3531 0.0325095 12.3493 0.0489999 12.3455C0.10224 12.4726 0.15548 12.5998 0.208249 12.7269C1.16186 15.0249 2.74588 16.7414 4.90564 17.9235C6.0741 18.5631 7.31983 18.9651 8.63293 19.1708C9.44331 19.2975 10.2565 19.3409 11.0707 19.2942C12.3965 19.218 13.6743 18.9341 14.8597 18.2983C16.0913 17.6382 17.0505 16.6957 17.7526 15.4812C17.7954 15.4069 17.8402 15.334 17.8925 15.2469C19.2664 16.1165 20.6271 16.9781 22 17.8473Z" fill="white"/>
</g>
<defs>
<clipPath id="clip0_442_1686">
<rect width="22" height="24" fill="white"/>
</clipPath>
</defs>
</svg>
