<svg width="36" height="28" viewBox="0 0 36 28" fill="none" xmlns="http://www.w3.org/2000/svg">
<path d="M35.9986 21.8873C35.9959 21.4382 36.004 20.9891 35.9607 20.5427C35.6609 17.4905 32.3786 16.0249 29.8581 17.8105C29.7635 17.8777 29.642 17.9154 29.5339 17.9611C29.4934 17.4448 29.4421 16.9258 29.4204 16.4067C29.4015 15.8931 29.415 15.3741 29.415 14.7878H30.8252C31.7707 14.7878 32.7163 14.8147 33.6591 14.7771C34.7667 14.7314 35.1746 14.3065 35.2367 13.1985C35.2529 12.9484 35.1908 12.6956 35.1557 12.3514H33.2025C32.6163 12.3514 32.0301 12.3702 31.4466 12.3434C30.8603 12.3192 30.2471 12.4617 29.4907 12.182C30.5118 11.066 31.4222 10.0817 32.3218 9.08942C32.9837 8.35795 33.6915 7.65876 34.2669 6.86544C34.6505 6.33836 34.9288 5.69026 35.0909 5.05561C35.3232 4.14397 34.7316 3.37486 33.7968 3.21619C33.5321 3.17048 33.2593 3.16779 32.9891 3.16779C31.325 3.16241 29.6582 3.12207 27.9968 3.18661C27.3133 3.21081 26.6406 3.46629 25.8491 3.64109C25.4439 3.19468 24.7739 3.16241 24.0877 3.16241C22.4668 3.16779 20.8486 3.16241 19.2277 3.16779C18.9144 3.16779 18.5956 3.17317 18.2876 3.22426C17.5339 3.35065 17.2151 3.67874 17.0747 4.43978C17.0314 4.66567 17.026 4.89963 16.9963 5.23847C15.0864 2.53313 12.2174 2.60574 10.1643 3.29149C8.59469 3.81589 7.75993 5.08788 8.34885 6.52929C8.6163 6.36525 8.87024 6.17432 9.1539 6.04524C10.4479 5.44823 11.7878 5.1578 13.198 5.58C14.1462 5.86506 14.4488 6.41366 14.2624 7.53774C13.9247 7.55657 13.5735 7.57001 13.2223 7.59691C11.2584 7.76095 9.31328 7.97609 7.91932 9.61112C7.8788 9.18623 7.81396 8.76402 7.81126 8.33644C7.79775 6.45668 7.81396 4.57424 7.79775 2.69449C7.79505 2.25077 7.71941 1.80705 7.64647 1.36871C7.50599 0.543123 6.92517 0.14781 6.16065 0.0321742C5.6987 -0.0377452 5.21513 0.0267958 4.68294 0.029485V1.52199C4.68294 4.43171 4.68834 7.34412 4.68294 10.2565C4.67753 12.0395 4.23719 12.4671 2.4245 12.3944C1.78154 12.3702 1.14129 12.2385 0.476724 12.1497C0.347053 12.9 0.309232 13.5616 0.754977 14.1424C1.3358 14.9008 2.2435 14.968 3.19712 15.1186C2.82432 15.4413 2.55147 15.6726 2.28672 15.9092C0.0688001 17.8939 -0.374244 20.4163 0.271411 23.1459C1.26556 27.3222 6.86033 29.5301 10.4803 26.5531C11.5582 27.7148 12.963 27.9138 14.5028 27.9488C16.1886 27.9865 17.3988 27.2846 18.3957 25.9104C19.2196 27.7875 20.7379 28.0322 22.3777 27.9972C24.2147 27.9542 25.7923 27.454 26.4407 25.351C26.8324 27.5616 27.2998 27.9461 29.2773 27.6799C29.2881 27.2254 29.3016 26.7467 29.307 26.2681C29.334 24.6572 29.3232 23.0437 29.3961 21.4356C29.4475 20.2711 30.0688 19.5235 31.2575 19.338C32.9108 19.7414 33.2998 20.1985 33.3187 21.804C33.3322 23.1029 33.3106 24.4017 33.3241 25.7006C33.343 27.4459 34.1399 28.0402 35.9986 27.6369C35.9986 25.7329 36.0013 23.8101 35.9986 21.8873ZM19.9085 5.59345C20.8027 5.56925 21.6996 5.58807 22.7667 5.58807C22.013 6.86544 21.0215 7.73675 20.1354 8.69141C19.2277 9.66759 18.3498 10.6653 17.4312 11.6818C17.3961 9.67835 17.6231 7.70179 17.1314 5.7064C18.0445 5.46706 18.9819 5.62034 19.9085 5.59345ZM11.6122 9.98223C12.5226 9.78592 13.452 9.74289 14.5434 9.76441C14.5434 10.235 14.565 10.4986 14.5407 10.7621C14.3975 12.4536 13.044 13.1689 11.4691 12.4267C10.8937 12.1578 10.6883 11.706 10.6586 11.152C10.6343 10.6734 11.0692 10.1006 11.6122 9.98223ZM13.4033 25.6684C12.8468 25.4317 12.5199 24.953 12.5686 24.4367C12.6172 23.9123 13.0035 23.4309 13.5951 23.3745C14.338 23.3046 15.0945 23.3583 15.9616 23.3583C15.9914 23.6407 16.0265 23.8101 16.0265 23.9822C16.04 25.5124 14.8486 26.2761 13.4033 25.6684ZM22.2642 25.7275C21.0431 25.8136 19.8653 25.6226 18.7658 24.8051V22.2827C19.7978 23.1943 21.0296 23.3852 22.2534 23.595C23.2719 23.7698 23.3043 23.7913 23.8392 24.5846C23.6933 25.4721 22.9882 25.6791 22.2642 25.7275ZM26.5434 23.5412C26.5434 23.5789 26.4947 23.6138 26.4191 23.7187C25.8005 22.1993 24.5145 21.7529 23.0638 21.4732C22.3209 21.3334 21.3943 21.4463 20.9405 20.5158C21.0729 19.5424 21.8428 19.4025 22.6073 19.3218C23.8473 19.1901 25.0035 19.4993 26.0814 20.1582C26.3299 18.6549 25.922 17.8616 24.6415 17.3453C22.7235 16.5708 20.2624 17.1517 19.0656 18.5742C18.8414 18.8405 18.6172 19.1094 18.3795 19.3918C16.6316 16.9795 13.9409 16.3799 11.3475 17.7702C11.1935 17.8508 11.0287 17.9127 10.8693 17.9826C10.5398 18.7006 10.0751 19.3918 10.4236 20.3249C11.569 19.5719 12.8171 19.1928 14.1895 19.3111C15.3376 19.4106 15.7617 19.8274 16.0022 21.1478C15.0404 21.2661 14.0814 21.371 13.1278 21.5055C12.7766 21.5539 12.4254 21.6453 12.0904 21.7609C10.5452 22.2907 9.97785 23.0437 9.75633 24.8159C7.56002 26.1901 4.62891 25.7087 3.47537 23.716C2.60279 22.21 2.4407 20.5831 3.1593 18.9642C4.01297 17.0495 5.87429 16.283 8.24079 16.7052C9.24575 16.8854 10.0238 17.4959 10.8693 17.9826C10.8585 17.8939 10.8288 17.8051 10.8369 17.7164C11.0368 15.7748 10.0562 14.5082 7.47898 14.2527C7.21693 14.2285 6.94948 14.25 6.51725 14.25C6.76578 13.8439 6.94138 13.5696 7.10887 13.29C7.26826 13.0237 7.41954 12.7575 7.65727 12.3487C8.64602 14.1855 10.1697 14.9411 12.1336 15.0164C14.076 15.0917 15.7914 14.7367 16.9693 12.9242C17.28 14.5324 17.5015 14.7475 19.044 14.7744C20.8892 14.8067 22.7343 14.8147 24.5794 14.769C25.1251 14.7556 25.6654 14.5162 26.3353 14.3495C26.3948 14.527 26.5704 14.8013 26.5731 15.0756C26.5812 17.8993 26.5596 20.7202 26.5434 23.5412ZM26.0976 12.2949H20.7595C22.2372 9.75365 24.8657 8.29341 26.1003 5.65261H31.6519C30.0148 8.08903 27.5483 9.72407 26.0976 12.2949Z" fill="white"/>
</svg>
